<svg width="30" height="30" viewBox="0 0 30 30" fill="none" xmlns="http://www.w3.org/2000/svg">
<path d="M29.2852 29.0411L20.869 20.2885C23.0157 18.1356 24.3456 15.1677 24.3456 11.8944C24.3456 5.3355 19.0101 0 12.4512 0C5.89227 0 0.556772 5.3355 0.556772 11.8944C0.556772 18.4533 5.89227 23.7888 12.4512 23.7888C15.3302 23.7888 17.9725 22.7597 20.0319 21.052L28.4685 29.8261C28.5795 29.9422 28.7279 30 28.8768 30C29.0184 30 29.1595 29.9473 29.2693 29.842C29.4948 29.625 29.5016 29.2665 29.2852 29.0411ZM12.4512 22.656C6.51701 22.656 1.68957 17.8286 1.68957 11.8944C1.68957 5.96024 6.51701 1.1328 12.4512 1.1328C18.3854 1.1328 23.2128 5.96024 23.2128 11.8944C23.2128 17.8286 18.3848 22.656 12.4512 22.656Z" fill="#fff"/>
</svg>
