<svg xmlns="http://www.w3.org/2000/svg" viewBox="0 0 1892.46 533.14"><defs><style>.cls-1{fill:#fff;}</style></defs><title>Ресурс 1</title><g id="Слой_2" data-name="Слой 2"><g id="Layer_1" data-name="Layer 1"><path class="cls-1" d="M711.29,528.69c-62.7,0-116.86-58.84-143.21-144.41H500.66c38.38,88,118.27,148.86,210.63,148.86s172.26-60.82,210.62-148.86h-67.4C828.15,469.85,774,528.69,711.29,528.69Z"/><path class="cls-1" d="M1216.41,524.2h-75.33V384.28h-61.87v75.78c0,58.16-29.12,64.14-64.88,64.14H992.71v3h231.17c110.88,0,193.27-58.18,232.23-142.93h-67.42C1362.69,463.22,1307.39,524.2,1216.41,524.2Z"/><path class="cls-1" d="M424.31,479.47,240.1,202.09l88-97.71C365.37,62.61,419.82,8.2,485.44,8.2v-3H292.29v3h21.62c17.18,0,32.09,9.68,38.8,24.59s3.71,32.83-7.45,45.51l-196.89,220V73.07c0-58.9,28.34-64.88,64.14-64.88h22.36v-3H0v3H21.62c35.8,0,64.88,6,64.88,64.88v387c0,58.16-29.08,64.14-64.88,64.14H0v3H234.87v-3H212.51c-35.8,0-64.14-6-64.14-64.14V319.15a37.15,37.15,0,0,1,9-24.63l40.25-44.73L352,482.44a102.6,102.6,0,0,0,84.24,44.77h72.33v-3A102.5,102.5,0,0,1,424.31,479.47Z"/><path class="cls-1" d="M711.29,4.45c62.83,0,117.09,58.76,143.38,144.42h67.5C883.9,60.71,803.85,0,711.29,0S538.66,60.71,500.38,148.86h67.54C594.21,63.2,648.46,4.45,711.29,4.45Z"/><path class="cls-1" d="M1223.87,5.23H992.71v3h21.62c35.76,0,64.88,6,64.88,64.88v75.79h61.87V8.2h75.33c91.13,0,146.45,61.51,172.39,140.67h67.63C1417.6,63.74,1335.06,5.23,1223.87,5.23Z"/><path class="cls-1" d="M1889.5,387.73c-8.2,45.52-35.8,136.47-165.55,136.47h-66.37V268.45h52.93c40.29,0,87.25.74,87.25,86.5h3V177.46h-3c0,85.76-47,86.5-87.25,86.5h-52.93V8.2h55.9c138,0,157.35,91,165.55,136.47l3-.74L1865.64,5.23H1509.17v3h21.62c35.79,0,64.88,6,64.88,64.88v387c0,58.16-29.08,64.14-64.88,64.14h-21.62v3h366.89l16.4-138.74Z"/><polygon class="cls-1" points="841.77 330.2 841.77 215.72 886.02 215.72 886.02 208.05 886.02 202.38 876.84 202.38 782.32 202.38 782.32 215.72 826.62 215.72 826.62 330.2 841.77 330.2"/><path class="cls-1" d="M934.17,272.06h77V330.2h15V202.39h-15v56.17h-77V202.39H919V330.2h15.15V305.11c.09-.45.16-.91.24-1.37h-.24Z"/><polygon class="cls-1" points="1167.18 215.72 1167.18 202.38 1078.96 202.38 1078.96 330.2 1169.87 330.2 1169.87 316.86 1094.1 316.86 1094.1 271.89 1159.28 271.89 1159.28 258.72 1094.1 258.72 1094.1 215.72 1167.18 215.72"/></g></g></svg>